<?xml version="1.0" encoding="UTF-8"?> <svg xmlns="http://www.w3.org/2000/svg" xmlns:xlink="http://www.w3.org/1999/xlink" width="474" height="459.444" viewBox="0 0 474 459.444"><defs><filter id="Path_251" x="130" y="132.444" width="229" height="229" filterUnits="userSpaceOnUse"><feOffset></feOffset><feGaussianBlur stdDeviation="15" result="blur"></feGaussianBlur><feFlood flood-color="#fff" flood-opacity="0.369"></feFlood><feComposite operator="in" in2="blur"></feComposite><feComposite in="SourceGraphic"></feComposite></filter><filter id="Path_209" x="160.838" y="165.83" width="166.528" height="161.984" filterUnits="userSpaceOnUse"><feOffset></feOffset><feGaussianBlur stdDeviation="15" result="blur-2"></feGaussianBlur><feFlood flood-color="#3179ff" flood-opacity="0.129"></feFlood><feComposite operator="in" in2="blur-2"></feComposite><feComposite in="SourceGraphic"></feComposite></filter><linearGradient id="linear-gradient" x1="0.252" y1="0.894" x2="0.759" y2="0.089" gradientUnits="objectBoundingBox"><stop offset="0" stop-color="#00ffa3"></stop><stop offset="1" stop-color="#dc1fff"></stop></linearGradient></defs><g id="Group_352" data-name="Group 352" transform="translate(35 -1895.556)"><path id="Path_233" data-name="Path 233" d="M1280.378,760.514,1254.5,761a5.5,5.5,0,0,1-5.5-5.5v-20a5.5,5.5,0,0,0-5.5-5.5h-6a5.5,5.5,0,0,1-5.5-5.5l.027-56.2" transform="translate(-1010 1542)" fill="none" stroke="#fff" stroke-miterlimit="10" stroke-width="0.8" opacity="0.6"></path><path id="Path_234" data-name="Path 234" d="M1174,742h10.5a6.5,6.5,0,0,0,6.5-6.5v-22a6.5,6.5,0,0,1,6.5-6.5h6a6.5,6.5,0,0,0,6.5-6.5V668.9" transform="translate(-1010 1542)" fill="none" stroke="#fff" stroke-miterlimit="10" stroke-width="0.8" opacity="0.6"></path><path id="Path_235" data-name="Path 235" d="M1161.94,639h-14.607a7.333,7.333,0,0,0-7.333,7.333v37.334a7.333,7.333,0,0,1-7.333,7.333h-29.334a7.333,7.333,0,0,0-7.333,7.333v9.334a7.333,7.333,0,0,1-7.333,7.333h-43.334a7.333,7.333,0,0,1-7.333-7.333V689" transform="translate(-1010 1542)" fill="none" stroke="#fff" stroke-miterlimit="10" stroke-width="0.8" opacity="0.6"></path><path id="Path_236" data-name="Path 236" d="M1150.687,610h-27.854a7.833,7.833,0,0,1-7.833-7.833V553.833a7.833,7.833,0,0,0-7.833-7.833h-61.334a7.833,7.833,0,0,0-7.833,7.833V565" transform="translate(-1010 1542)" fill="none" stroke="#fff" stroke-miterlimit="10" stroke-width="0.8" opacity="0.6"></path><path id="Path_237" data-name="Path 237" d="M1397,668.908v17.814a5.278,5.278,0,0,1-5.278,5.278h-76.444a5.278,5.278,0,0,1-5.278-5.278V618.278a5.278,5.278,0,0,0-5.278-5.278H1287" transform="translate(-1010 1542)" fill="none" stroke="#fff" stroke-miterlimit="10" stroke-width="0.8" opacity="0.6"></path><path id="Path_238" data-name="Path 238" d="M1383,532v9.611a5.389,5.389,0,0,1-5.389,5.389h-54.222a5.389,5.389,0,0,0-5.389,5.389v47.222a5.389,5.389,0,0,1-5.389,5.389H1288" transform="translate(-1010 1542)" fill="none" stroke="#fff" stroke-miterlimit="10" stroke-width="0.8" opacity="0.6"></path><path id="Path_239" data-name="Path 239" d="M1170,353.556" transform="translate(-1010 1542)" fill="#3179ff" stroke="#fff" stroke-miterlimit="10" stroke-width="0.8" opacity="0.6"></path><path id="Path_240" data-name="Path 240" d="M1235,534V506.333a5.333,5.333,0,0,0-5.333-5.333h-32.334a5.333,5.333,0,0,1-5.333-5.333V449.333a5.333,5.333,0,0,1,5.333-5.333H1218" transform="translate(-1010 1542)" fill="none" stroke="#fff" stroke-miterlimit="10" stroke-width="0.8" opacity="0.6"></path><path id="Path_241" data-name="Path 241" d="M1217,532h0a7,7,0,0,0-7-7h-31a7,7,0,0,1-7-7V479a7,7,0,0,0-7-7h-12" transform="translate(-1010 1542)" fill="none" stroke="#fff" stroke-miterlimit="10" stroke-width="0.8" opacity="0.6"></path><g transform="matrix(1, 0, 0, 1, -35, 1895.56)" filter="url(#Path_251)"><path id="Path_251-2" data-name="Path 251" d="M69.5,0A69.5,69.5,0,1,1,0,69.5,69.5,69.5,0,0,1,69.5,0Z" transform="translate(175 177.44)" fill="#246aff"></path></g><g id="Group_322" data-name="Group 322" transform="translate(-1010 1542)"><circle id="Ellipse_23" data-name="Ellipse 23" cx="3" cy="3" r="3" transform="translate(1246 744)" fill="#246aff" stroke="#fff" stroke-miterlimit="10" stroke-width="2"></circle><circle id="Ellipse_24" data-name="Ellipse 24" cx="3" cy="3" r="3" transform="translate(1197 704)" fill="#246aff" stroke="#fff" stroke-miterlimit="10" stroke-width="2"></circle><circle id="Ellipse_25" data-name="Ellipse 25" cx="3" cy="3" r="3" transform="translate(1137 664)" fill="#246aff" stroke="#fff" stroke-miterlimit="10" stroke-width="2"></circle><circle id="Ellipse_26" data-name="Ellipse 26" cx="3" cy="3" r="3" transform="translate(1052 712)" fill="#246aff" stroke="#fff" stroke-miterlimit="10" stroke-width="2"></circle><circle id="Ellipse_27" data-name="Ellipse 27" cx="3" cy="3" r="3" transform="translate(1089 543)" fill="#246aff" stroke="#fff" stroke-miterlimit="10" stroke-width="2"></circle><circle id="Ellipse_28" data-name="Ellipse 28" cx="3" cy="3" r="3" transform="translate(1307 642)" fill="#246aff" stroke="#fff" stroke-miterlimit="10" stroke-width="2"></circle><circle id="Ellipse_29" data-name="Ellipse 29" cx="3" cy="3" r="3" transform="translate(1359 544)" fill="#246aff" stroke="#fff" stroke-miterlimit="10" stroke-width="2"></circle><circle id="Ellipse_31" data-name="Ellipse 31" cx="3" cy="3" r="3" transform="translate(1169 497)" fill="#246aff" stroke="#fff" stroke-miterlimit="10" stroke-width="2"></circle><circle id="Ellipse_33" data-name="Ellipse 33" cx="3" cy="3" r="3" transform="translate(1189 454)" fill="#246aff" stroke="#fff" stroke-miterlimit="10" stroke-width="2"></circle></g><g transform="matrix(1, 0, 0, 1, -35, 1895.56)" filter="url(#Path_209)"><path id="Path_209-2" data-name="Path 209" d="M141.528,32.154a13.041,13.041,0,0,0-26.06-.778,31.154,31.154,0,0,0-24.4.08A13.042,13.042,0,1,0,76.1,45.052a31.084,31.084,0,1,0,54.485-.027A13.044,13.044,0,0,0,141.528,32.154Zm-69.893,0a6.408,6.408,0,1,1,6.408,6.408A6.407,6.407,0,0,1,71.635,32.154Zm31.72,52.4a24.54,24.54,0,1,1,15.675-43.42,13.086,13.086,0,0,0,1.476,1.336,24.535,24.535,0,0,1-17.151,42.084Zm25.131-45.99a6.408,6.408,0,1,1,6.408-6.408A6.408,6.408,0,0,1,128.486,38.561Z" transform="translate(140.84 191.72)" fill="#fff"></path></g></g><g id="Layer_2" data-name="Layer 2" transform="translate(0 211.444)"><g id="Layer_1" data-name="Layer 1"><circle id="Ellipse_42" data-name="Ellipse 42" cx="63" cy="63" r="63" fill="url(#linear-gradient)"></circle><path id="Path_267" data-name="Path 267" d="M22.148,28.391a1.759,1.759,0,0,1,1.286-.551H68.06a.919.919,0,0,1,.656,1.575l-8.82,8.82a1.838,1.838,0,0,1-1.312.525H13.958a.892.892,0,0,1-.63-1.549Z" transform="translate(21.19 45.24)" fill="#fff"></path><path id="Path_268" data-name="Path 268" d="M22.148,15.851a1.864,1.864,0,0,1,1.286-.551H68.06a.919.919,0,0,1,.656,1.575L59.9,25.7a1.838,1.838,0,0,1-1.312.525H13.958a.893.893,0,0,1-.63-1.549Z" transform="translate(21.19 24.862)" fill="#fff"></path><path id="Path_269" data-name="Path 269" d="M59.888,22.081a1.864,1.864,0,0,0-1.312-.551H13.951a.919.919,0,0,0-.63,1.575l8.82,8.82a1.733,1.733,0,0,0,1.286.525H68.052a.919.919,0,0,0,.656-1.549Z" transform="translate(21.198 34.986)" fill="#fff"></path></g></g><g id="bitcoin" transform="translate(71 64.444)"><g id="Group_353" data-name="Group 353" transform="translate(0 0)"><path id="Path_252" data-name="Path 252" d="M108,54A52.029,52.029,0,0,1,92.184,92.184,52.029,52.029,0,0,1,54,108,52.029,52.029,0,0,1,15.816,92.184,52.029,52.029,0,0,1,0,54,52.029,52.029,0,0,1,15.816,15.816,52.029,52.029,0,0,1,54,0,52.029,52.029,0,0,1,92.184,15.816,52.029,52.029,0,0,1,108,54q0,.943-.033,1.885" transform="translate(0 0)" fill="#f7931a"></path><path id="Path_253" data-name="Path 253" d="M83.361,51.068c1.06-7.074-4.33-10.878-11.694-13.416h0l2.389-9.585-5.832-1.451L65.9,35.947c-1.532-.385-3.1-.743-4.674-1.1h0l2.346-9.393L57.735,24l-2.389,9.582c-1.269-.29-2.518-.574-3.726-.878h0l.007-.03L43.58,30.666,42.027,36.9s4.33.992,4.239,1.053c2.362.591,2.788,2.153,2.717,3.4h0l-2.72,10.918a5.189,5.189,0,0,1,.607.192h0l-.618-.152L42.439,67.6a2.127,2.127,0,0,1-2.676,1.384c.061.084-4.239-1.056-4.239-1.056h0l-2.9,6.676,7.594,1.893c1.411.354,2.795.726,4.155,1.073h0l-2.413,9.693,5.829,1.451,2.389-9.585c1.593.429,3.139.827,4.651,1.2h0l-2.383,9.545,5.832,1.451,2.413-9.673c9.949,1.883,17.428,1.124,20.577-7.874,2.538-7.243-.125-11.424-5.359-14.148,3.814-.877,6.682-3.385,7.449-8.566ZM70.03,69.758c-1.8,7.246-14,3.328-17.955,2.346h0l3.206-12.842C59.236,60.251,71.916,62.2,70.03,69.758Zm1.806-18.8c-1.644,6.591-11.8,3.24-15.086,2.42h0l2.9-11.644C62.942,42.559,73.55,44.088,71.835,50.963Z" transform="translate(-5.098 -3.75)" fill="#fff"></path></g></g><g id="coinbase" transform="translate(125 351.444)"><rect id="Rectangle_25" data-name="Rectangle 25" width="74" height="74" rx="37" fill="#0052ff"></rect><path id="Path_254" data-name="Path 254" d="M178.162,191.023a13.008,13.008,0,1,1,12.813-15.176H204.08a26.016,26.016,0,1,0,0,4.336H190.964A12.993,12.993,0,0,1,178.162,191.023Z" transform="translate(-141.151 -141.016)" fill="#fff"></path></g><g id="ftx" transform="translate(237 58.444)"><g id="Group_359" data-name="Group 359" transform="translate(6)"><g id="Group_356" data-name="Group 356" transform="translate(0)"><path id="SVGID_1_" d="M38,64A32,32,0,1,1,70,32,32,32,0,0,1,38,64Z" transform="translate(-6)" fill="#2e2e2e"></path></g><g id="Group_357" data-name="Group 357" transform="translate(23.973 40.978)"><path id="SVGID_2_" d="M1317,2249.7V2241h8.7v8.7Z" transform="translate(-1317 -2241)" fill="#2e2e2e"></path></g><g id="Group_358" data-name="Group 358" transform="translate(0)"><path id="Path_261" data-name="Path 261" d="M38,64A32,32,0,1,1,70,32,32,32,0,0,1,38,64Z" transform="translate(-6)" fill="#2e2e2e"></path></g></g><g id="Group_361" data-name="Group 361" transform="translate(30.96 41.307)"><g id="Group_360" data-name="Group 360"><path id="SVGID_5_" d="M1371,2259h8.8v8.8H1371Z" transform="translate(-1371 -2259)" fill="#abebf4"></path></g></g><g id="Group_365" data-name="Group 365" transform="translate(19.989 29.074)"><g id="Group_362" data-name="Group 362"><path id="SVGID_7_" d="M771,1598.8V1590h8.8v8.8Z" transform="translate(-771 -1590)" fill="#5fcade"></path></g><g id="Group_363" data-name="Group 363" transform="translate(10.971)"><path id="SVGID_8_" d="M1371,1598.8V1590h19.73v8.8Z" transform="translate(-1371 -1590)" fill="#5fcade"></path></g></g><g id="Group_367" data-name="Group 367" transform="translate(30.96 16.841)"><g id="Group_366" data-name="Group 366"><path id="SVGID_11_" d="M1371,921h27.045v8.8H1371Z" transform="translate(-1371 -921)" fill="#02a6c2"></path></g></g></g><g id="avalanche" transform="translate(346 53.444)"><circle id="Ellipse_41" data-name="Ellipse 41" cx="62.5" cy="62.5" r="62.5" transform="translate(0 0)" fill="#e84142"></circle><path id="Path_262" data-name="Path 262" d="M28.964,81.977H20.879c-3.537,0-5.316,0-6.387-.687a4.245,4.245,0,0,1-2.021-3.355c0-1.273.809-2.81,2.567-5.9L43.942,21.357c1.779-3.133,2.668-4.71,3.8-5.276a4.265,4.265,0,0,1,3.921,0c1.132.586,2.021,2.143,3.82,5.276l4.164,7.3A28,28,0,0,1,63,35.567a12.916,12.916,0,0,1,0,6.064,28.5,28.5,0,0,1-3.335,6.913h0L46.287,71.931a28.743,28.743,0,0,1-4.326,6.489,12.775,12.775,0,0,1-5.215,3.012,28.016,28.016,0,0,1-7.782.546Z" transform="translate(12.574 8.316)" fill="#fff"></path><path id="Path_263" data-name="Path 263" d="M57.725,62.312H43.919c-3.578,0-5.377,0-6.428-.687a4.386,4.386,0,0,1-2.021-3.4c0-1.273.849-2.81,2.648-5.9l6.893-11.845c1.779-3.052,2.668-4.588,3.8-5.154a4.245,4.245,0,0,1,3.881,0c1.132.566,2.021,2.021,3.8,5.154L63.4,52.307c1.819,3.093,2.729,4.649,2.668,5.923A4.326,4.326,0,0,1,64.052,61.6C63.122,62.312,61.323,62.312,57.725,62.312Z" transform="translate(36.065 27.981)" fill="#fff"></path></g><g id="opensea" transform="translate(370 211.444)"><path id="Path_264" data-name="Path 264" d="M104,52A52,52,0,1,1,52,0,52,52,0,0,1,104,52Z" fill="#2081e2"></path><path id="Path_265" data-name="Path 265" d="M24.668,51.68l.216-.339L37.891,30.993a.445.445,0,0,1,.781.056c2.173,4.87,4.048,10.927,3.17,14.7a22.971,22.971,0,0,1-2.558,5.594c-.149.283-.313.56-.488.827a.442.442,0,0,1-.37.2H25.048A.444.444,0,0,1,24.668,51.68Z" transform="translate(1.192 1.57)" fill="#fff"></path><path id="Path_266" data-name="Path 266" d="M82.644,55.461v3.221a.462.462,0,0,1-.277.421c-1.007.431-4.454,2.014-5.887,4.007-3.658,5.091-6.452,12.37-12.7,12.37H37.721A16.748,16.748,0,0,1,21,58.7v-.3a.447.447,0,0,1,.447-.447H35.974a.494.494,0,0,1,.473.55,4.959,4.959,0,0,0,.519,2.789,5.111,5.111,0,0,0,4.582,2.846H48.74V58.528H41.63a.458.458,0,0,1-.37-.719c.077-.118.164-.241.257-.38.673-.956,1.634-2.44,2.589-4.13A32.348,32.348,0,0,0,45.9,49.718c.1-.221.185-.447.267-.668.139-.39.283-.755.385-1.12.1-.308.185-.632.267-.935a14.47,14.47,0,0,0,.344-3.277c0-.447-.021-.914-.062-1.361-.021-.488-.082-.976-.144-1.464-.041-.431-.118-.858-.2-1.3-.1-.652-.247-1.3-.411-1.952l-.056-.246c-.123-.447-.226-.873-.37-1.32-.406-1.4-.873-2.769-1.367-4.048-.18-.509-.385-1-.591-1.485-.3-.735-.611-1.4-.894-2.034-.144-.288-.267-.55-.39-.817-.139-.3-.282-.606-.426-.894-.1-.221-.221-.426-.3-.632l-.878-1.623a.286.286,0,0,1,.324-.416l5.5,1.49h.015c.01,0,.015.005.021.005l.724.2.8.226.293.082V22.856A2.84,2.84,0,0,1,51.565,20a2.79,2.79,0,0,1,2,.837,2.872,2.872,0,0,1,.827,2.019v4.849l.586.164a.468.468,0,0,1,.134.067c.144.108.349.267.611.462.206.164.426.365.694.57.529.426,1.161.976,1.854,1.608.185.159.365.324.529.488.894.832,1.9,1.808,2.851,2.887.267.3.529.611.8.935s.55.652.8.976c.324.431.673.878.976,1.346.144.221.308.447.447.668.39.591.735,1.2,1.063,1.813.139.283.282.591.406.894a13.071,13.071,0,0,1,.837,2.481,3.1,3.1,0,0,1,.118.55v.041a4.7,4.7,0,0,1,.1.776A8.3,8.3,0,0,1,67.048,47a9.34,9.34,0,0,1-.3,1.074c-.123.349-.247.714-.406,1.058a14.348,14.348,0,0,1-1.1,2.1c-.139.247-.3.509-.467.755-.18.262-.365.508-.529.75-.226.308-.467.632-.714.919a9.757,9.757,0,0,1-.694.873c-.344.406-.673.791-1.017,1.161-.205.241-.426.488-.652.709-.221.246-.447.467-.652.673-.344.344-.632.611-.873.832l-.565.519a.461.461,0,0,1-.3.113H54.391v5.615H59.9A5.152,5.152,0,0,0,63.247,62.9a40.174,40.174,0,0,0,3.406-3.349.427.427,0,0,1,.211-.128l15.211-4.4A.449.449,0,0,1,82.644,55.461Z" transform="translate(2.19 1.797)" fill="#fff"></path></g><g id="binance" transform="translate(305 354.444)"><g id="Group_354" data-name="Group 354"><path id="Path_255" data-name="Path 255" d="M52.5,0A52.5,52.5,0,1,1,0,52.5,52.492,52.492,0,0,1,52.5,0Z" fill="#16191b"></path></g><g id="Group_355" data-name="Group 355" transform="translate(17.64 17.577)"><path id="Path_256" data-name="Path 256" d="M348.875,228.529,341,220.654l7.875-7.854,7.854,7.854Z" transform="translate(-287.03 -185.689)" fill="#f3ba2e"></path><path id="Path_257" data-name="Path 257" d="M169.5,99.471l-13.545,13.524-7.854-7.854,21.294-21.315.1-.126.1.126L190.9,105.141l-7.854,7.854Z" transform="translate(-134.639 -83.7)" fill="#f3ba2e"></path><path id="Path_258" data-name="Path 258" d="M91.875,228.529,84,220.654l7.875-7.854,7.854,7.854Z" transform="translate(-84 -185.689)" fill="#f3ba2e"></path><path id="Path_259" data-name="Path 259" d="M220.875,212.8l7.854,7.854-7.854,7.875L213,220.654Z" transform="translate(-185.91 -185.689)" fill="#f3ba2e"></path><path id="Path_260" data-name="Path 260" d="M169.5,290.324,183.044,276.8l7.854,7.854L169.6,305.969l-.1.126-.1-.126L148.1,284.654l7.854-7.854Z" transform="translate(-134.639 -236.249)" fill="#f3ba2e"></path></g></g></svg> 